<?xml version="1.0" encoding="UTF-8" standalone="no" ?>
<!DOCTYPE svg PUBLIC "-//W3C//DTD SVG 1.1//EN" "http://www.w3.org/Graphics/SVG/1.1/DTD/svg11.dtd">
<svg xmlns="http://www.w3.org/2000/svg" xmlns:xlink="http://www.w3.org/1999/xlink" version="1.1" width="619.4144921875001" height="197.53" xml:space="preserve">
<desc>Created with Fabric.js 1.6.0-rc.1</desc>
<defs></defs>
<g style="stroke: none; stroke-width: 1; stroke-dasharray: none; stroke-linecap: butt; stroke-linejoin: miter; stroke-miterlimit: 10; fill: none; fill-rule: nonzero; opacity: 1;" transform="translate(9.999999999999993 63.99999999999999) scale(0.23 0.23)" >
  <path d="M 255 0 C 114.75 0 0 114.75 0 255 s 114.75 255 255 255 s 255 -114.75 255 -255 S 395.25 0 255 0 z" style="stroke: none; stroke-width: 1; stroke-dasharray: none; stroke-linecap: butt; stroke-linejoin: miter; stroke-miterlimit: 10; fill: #f23f3f; fill-rule: nonzero; opacity: 1;" transform=" matrix(1 0 0 1 0 0) " stroke-linecap="round" />
</g>
<g style="stroke: none; stroke-width: 1; stroke-dasharray: none; stroke-linecap: butt; stroke-linejoin: miter; stroke-miterlimit: 10; fill: none; fill-rule: nonzero; opacity: 1;" transform="translate(83 70) scale(0.23 0.23)" >
  <path d="M 255 0 C 114.75 0 0 114.75 0 255 s 114.75 255 255 255 s 255 -114.75 255 -255 S 395.25 0 255 0 z" style="stroke: none; stroke-width: 1; stroke-dasharray: none; stroke-linecap: butt; stroke-linejoin: miter; stroke-miterlimit: 10; fill: #42ffaa; fill-rule: nonzero; opacity: 1;" transform=" matrix(1 0 0 1 0 0) " stroke-linecap="round" />
</g>
<g style="stroke: none; stroke-width: 1; stroke-dasharray: none; stroke-linecap: butt; stroke-linejoin: miter; stroke-miterlimit: 10; fill: none; fill-rule: nonzero; opacity: 1;" transform="translate(83 9.999999999999993) scale(0.23 0.23)" >
  <path d="M 255 0 C 114.75 0 0 114.75 0 255 s 114.75 255 255 255 s 255 -114.75 255 -255 S 395.25 0 255 0 z" style="stroke: none; stroke-width: 1; stroke-dasharray: none; stroke-linecap: butt; stroke-linejoin: miter; stroke-miterlimit: 10; fill: #4281ff; fill-rule: nonzero; opacity: 1;" transform=" matrix(1 0 0 1 0 0) " stroke-linecap="round" />
</g>
<g style="stroke: none; stroke-width: 1; stroke-dasharray: none; stroke-linecap: butt; stroke-linejoin: miter; stroke-miterlimit: 10; fill: none; fill-rule: nonzero; opacity: 1;" transform="translate(9.999999999999993 9.999999999999993) scale(0.23 0.23)" >
  <path d="M 255 0 C 114.75 0 0 114.75 0 255 s 114.75 255 255 255 s 255 -114.75 255 -255 S 395.25 0 255 0 z" style="stroke: none; stroke-width: 1; stroke-dasharray: none; stroke-linecap: butt; stroke-linejoin: miter; stroke-miterlimit: 10; fill: #6e1ff4; fill-rule: nonzero; opacity: 1;" transform=" matrix(1 0 0 1 0 0) " stroke-linecap="round" />
</g>
  <g transform="translate(392.2 98.94) scale(3.51 3.1)">
   <text font-family="Arial" font-size="40" font-weight="normal" style="stroke: none; stroke-width: 1; stroke-dasharray: none; stroke-linecap: butt; stroke-linejoin: miter; stroke-miterlimit: 10; fill: #ffffff; fill-rule: nonzero; opacity: 1;" ><tspan x="-46.69" y="8.98" style="stroke: none; stroke-width: 0; stroke-dasharray: none; stroke-linecap: butt; stroke-linejoin: miter; stroke-miterlimit: 4; fill: #ffffff; fill-rule: ; opacity: 1;">i</tspan><tspan x="-37.8" y="8.98" style="stroke: none; stroke-width: 0; stroke-dasharray: none; stroke-linecap: butt; stroke-linejoin: miter; stroke-miterlimit: 4; fill: #ffffff; fill-rule: ; opacity: 1;">N</tspan><tspan x="-8.92" y="8.98" style="stroke: none; stroke-width: 0; stroke-dasharray: none; stroke-linecap: butt; stroke-linejoin: miter; stroke-miterlimit: 4; fill: #ffffff; fill-rule: ; opacity: 1;">o</tspan><tspan x="13.33" y="8.98" style="stroke: none; stroke-width: 0; stroke-dasharray: none; stroke-linecap: butt; stroke-linejoin: miter; stroke-miterlimit: 4; fill: #ffffff; fill-rule: ; opacity: 1;">t</tspan><tspan x="24.44" y="8.98" style="stroke: none; stroke-width: 0; stroke-dasharray: none; stroke-linecap: butt; stroke-linejoin: miter; stroke-miterlimit: 4; fill: #ffffff; fill-rule: ; opacity: 1;">e</tspan></text>
 </g>
<g style="stroke: none; stroke-width: 1; stroke-dasharray: none; stroke-linecap: butt; stroke-linejoin: miter; stroke-miterlimit: 10; fill: none; fill-rule: nonzero; opacity: 1;" transform="translate(51.3900000000001 41.300000000000004) scale(1.86 1.86)" >
  <path d="M 29 25.882 l 26.482 -13.241 L 29.434 0.099 c -0.284 -0.137 -0.615 -0.132 -0.895 0.014 l -25 13 c -0.011 0.006 -0.018 0.015 -0.029 0.021 c -0.001 0.001 -0.002 0.001 -0.003 0.002 L 29 25.882 z" style="stroke: none; stroke-width: 1; stroke-dasharray: none; stroke-linecap: butt; stroke-linejoin: miter; stroke-miterlimit: 10; fill: #fffff0; fill-rule: nonzero; opacity: 1;" transform=" matrix(1 0 0 1 0 0) " stroke-linecap="round" />
  <path d="M 30 27.618 V 60 c 0.138 0 0.272 -0.038 0.401 -0.094 c 0.015 -0.007 0.032 -0.004 0.046 -0.011 l 26 -13 C 56.786 46.725 57 46.379 57 46 V 14.119 L 30 27.618 z" style="stroke: none; stroke-width: 1; stroke-dasharray: none; stroke-linecap: butt; stroke-linejoin: miter; stroke-miterlimit: 10; fill: #fffff0; fill-rule: nonzero; opacity: 1;" transform=" matrix(1 0 0 1 0 0) " stroke-linecap="round" />
  <path d="M 28 27.618 l -25 -12.5 V 46 c 0 0.379 0.214 0.725 0.553 0.895 L 28 59.119 V 27.618 z" style="stroke: none; stroke-width: 1; stroke-dasharray: none; stroke-linecap: butt; stroke-linejoin: miter; stroke-miterlimit: 10; fill: #fffff0; fill-rule: nonzero; opacity: 1;" transform=" matrix(1 0 0 1 0 0) " stroke-linecap="round" />
</g>
  <g transform="translate(422.25 164.51) scale(0.87 0.87)">
   <text font-family="Arial" font-size="40" font-weight="normal" style="stroke: none; stroke-width: 1; stroke-dasharray: none; stroke-linecap: butt; stroke-linejoin: miter; stroke-miterlimit: 10; fill: #e0e0e0; fill-rule: nonzero; opacity: 1;" ><tspan x="-215.63" y="8.98" style="stroke: none; stroke-width: 0; stroke-dasharray: none; stroke-linecap: butt; stroke-linejoin: miter; stroke-miterlimit: 4; fill: #e0e0e0; fill-rule: ; opacity: 1;">K</tspan><tspan x="-188.96" y="8.98" style="stroke: none; stroke-width: 0; stroke-dasharray: none; stroke-linecap: butt; stroke-linejoin: miter; stroke-miterlimit: 4; fill: #e0e0e0; fill-rule: ; opacity: 1;">e</tspan><tspan x="-166.71" y="8.98" style="stroke: none; stroke-width: 0; stroke-dasharray: none; stroke-linecap: butt; stroke-linejoin: miter; stroke-miterlimit: 4; fill: #e0e0e0; fill-rule: ; opacity: 1;">e</tspan><tspan x="-144.46" y="8.98" style="stroke: none; stroke-width: 0; stroke-dasharray: none; stroke-linecap: butt; stroke-linejoin: miter; stroke-miterlimit: 4; fill: #e0e0e0; fill-rule: ; opacity: 1;">p</tspan><tspan x="-122.22" y="8.98" style="stroke: none; stroke-width: 0; stroke-dasharray: none; stroke-linecap: butt; stroke-linejoin: miter; stroke-miterlimit: 4; fill: #e0e0e0; fill-rule: ; opacity: 1;"> </tspan><tspan x="-111.1" y="8.98" style="stroke: none; stroke-width: 0; stroke-dasharray: none; stroke-linecap: butt; stroke-linejoin: miter; stroke-miterlimit: 4; fill: #e0e0e0; fill-rule: ; opacity: 1;">T</tspan><tspan x="-86.67" y="8.98" style="stroke: none; stroke-width: 0; stroke-dasharray: none; stroke-linecap: butt; stroke-linejoin: miter; stroke-miterlimit: 4; fill: #e0e0e0; fill-rule: ; opacity: 1;">a</tspan><tspan x="-64.42" y="8.98" style="stroke: none; stroke-width: 0; stroke-dasharray: none; stroke-linecap: butt; stroke-linejoin: miter; stroke-miterlimit: 4; fill: #e0e0e0; fill-rule: ; opacity: 1;">s</tspan><tspan x="-44.42" y="8.98" style="stroke: none; stroke-width: 0; stroke-dasharray: none; stroke-linecap: butt; stroke-linejoin: miter; stroke-miterlimit: 4; fill: #e0e0e0; fill-rule: ; opacity: 1;">k</tspan><tspan x="-24.42" y="8.98" style="stroke: none; stroke-width: 0; stroke-dasharray: none; stroke-linecap: butt; stroke-linejoin: miter; stroke-miterlimit: 4; fill: #e0e0e0; fill-rule: ; opacity: 1;">s</tspan><tspan x="-4.42" y="8.98" style="stroke: none; stroke-width: 0; stroke-dasharray: none; stroke-linecap: butt; stroke-linejoin: miter; stroke-miterlimit: 4; fill: #e0e0e0; fill-rule: ; opacity: 1;"> </tspan><tspan x="6.69" y="8.98" style="stroke: none; stroke-width: 0; stroke-dasharray: none; stroke-linecap: butt; stroke-linejoin: miter; stroke-miterlimit: 4; fill: #e0e0e0; fill-rule: ; opacity: 1;">U</tspan><tspan x="35.58" y="8.98" style="stroke: none; stroke-width: 0; stroke-dasharray: none; stroke-linecap: butt; stroke-linejoin: miter; stroke-miterlimit: 4; fill: #e0e0e0; fill-rule: ; opacity: 1;">p</tspan><tspan x="57.82" y="8.98" style="stroke: none; stroke-width: 0; stroke-dasharray: none; stroke-linecap: butt; stroke-linejoin: miter; stroke-miterlimit: 4; fill: #e0e0e0; fill-rule: ; opacity: 1;">-</tspan><tspan x="71.14" y="8.98" style="stroke: none; stroke-width: 0; stroke-dasharray: none; stroke-linecap: butt; stroke-linejoin: miter; stroke-miterlimit: 4; fill: #e0e0e0; fill-rule: ; opacity: 1;">T</tspan><tspan x="95.58" y="8.98" style="stroke: none; stroke-width: 0; stroke-dasharray: none; stroke-linecap: butt; stroke-linejoin: miter; stroke-miterlimit: 4; fill: #e0e0e0; fill-rule: ; opacity: 1;">o</tspan><tspan x="117.82" y="8.98" style="stroke: none; stroke-width: 0; stroke-dasharray: none; stroke-linecap: butt; stroke-linejoin: miter; stroke-miterlimit: 4; fill: #e0e0e0; fill-rule: ; opacity: 1;">-</tspan><tspan x="131.14" y="8.98" style="stroke: none; stroke-width: 0; stroke-dasharray: none; stroke-linecap: butt; stroke-linejoin: miter; stroke-miterlimit: 4; fill: #e0e0e0; fill-rule: ; opacity: 1;">D</tspan><tspan x="160.03" y="8.98" style="stroke: none; stroke-width: 0; stroke-dasharray: none; stroke-linecap: butt; stroke-linejoin: miter; stroke-miterlimit: 4; fill: #e0e0e0; fill-rule: ; opacity: 1;">a</tspan><tspan x="182.28" y="8.98" style="stroke: none; stroke-width: 0; stroke-dasharray: none; stroke-linecap: butt; stroke-linejoin: miter; stroke-miterlimit: 4; fill: #e0e0e0; fill-rule: ; opacity: 1;">t</tspan><tspan x="193.39" y="8.98" style="stroke: none; stroke-width: 0; stroke-dasharray: none; stroke-linecap: butt; stroke-linejoin: miter; stroke-miterlimit: 4; fill: #e0e0e0; fill-rule: ; opacity: 1;">e</tspan></text>
 </g>
</svg>